<?xml version="1.0" encoding="utf-8"?>
<!-- Generator: Adobe Illustrator 16.0.0, SVG Export Plug-In . SVG Version: 6.00 Build 0)  -->
<!DOCTYPE svg PUBLIC "-//W3C//DTD SVG 1.1//EN" "http://www.w3.org/Graphics/SVG/1.1/DTD/svg11.dtd">
<svg version="1.1" id="Layer_1" xmlns="http://www.w3.org/2000/svg" xmlns:xlink="http://www.w3.org/1999/xlink" x="0px" y="0px"
	 width="23.577px" height="25.316px" viewBox="0 0 23.577 25.316" enable-background="new 0 0 23.577 25.316" xml:space="preserve">
<g>
	
		<line fill="none" stroke="#FFFFFF" stroke-width="3" stroke-linecap="round" stroke-linejoin="round" stroke-miterlimit="10" x1="-144.75" y1="-10.129" x2="-134.75" y2="-10.129"/>
	
		<line fill="none" stroke="#FFFFFF" stroke-width="3" stroke-linecap="round" stroke-linejoin="round" stroke-miterlimit="10" x1="-144.75" y1="-2.796" x2="-126.084" y2="-2.796"/>
	
		<line fill="none" stroke="#FFFFFF" stroke-width="3" stroke-linecap="round" stroke-linejoin="round" stroke-miterlimit="10" x1="-144.75" y1="8.538" x2="-117.416" y2="8.538"/>
</g>
<g>
	<path fill-rule="evenodd" clip-rule="evenodd" fill="#FFFFFF" d="M-111.544,12.922c-2.769,0.005-5.013-2.207-5.018-4.942
		c-0.005-2.748,2.226-4.985,4.972-4.988c2.78-0.003,5,2.189,5.008,4.942C-106.575,10.703-108.779,12.917-111.544,12.922z
		 M-111.578,11.985c2.24,0,4.053-1.793,4.061-4.017c0.008-2.222-1.803-4.032-4.039-4.038c-2.234-0.005-4.051,1.791-4.059,4.017
		C-115.623,10.167-113.807,11.984-111.578,11.985z"/>
	<path fill-rule="evenodd" clip-rule="evenodd" fill="#FFFFFF" d="M-109.365,13.265c0.443-0.258,0.834-0.485,1.262-0.733
		c0.058,0.07,0.129,0.137,0.176,0.217c0.72,1.242,1.455,2.477,2.138,3.739c0.13,0.239,0.144,0.645,0.025,0.882
		c-0.091,0.182-0.471,0.299-0.722,0.297c-0.184-0.002-0.43-0.203-0.537-0.383C-107.813,15.965-108.574,14.632-109.365,13.265z"/>
</g>
<g>
	<path fill-rule="evenodd" clip-rule="evenodd" fill="#FFDC5C" d="M-52.058,12.118c-0.397,0-0.797,0.018-1.193-0.007
		c-0.281-0.019-0.393,0.112-0.541,0.331c-0.293,0.436-0.59,0.914-1.003,1.211c-1.149,0.833-2.601,0.294-3.271-1.066
		c-0.188-0.377-0.393-0.495-0.793-0.479c-0.744,0.031-1.492,0.012-2.238,0.006c-0.708-0.006-0.969-0.316-0.926-1.033
		c0.05-0.826,0.345-1.556,0.883-2.167c0.508-0.577,0.687-1.251,0.717-1.986c0.037-0.881,0.021-1.767,0.107-2.643
		c0.158-1.604,0.963-2.784,2.436-3.493c0.151-0.072,0.302-0.248,0.354-0.408c0.234-0.721,0.773-1.164,1.5-1.18
		c0.764-0.018,1.334,0.379,1.57,1.119c0.074,0.235,0.163,0.401,0.414,0.511c1.487,0.65,2.223,1.864,2.413,3.418
		c0.1,0.812,0.091,1.638,0.103,2.457c0.012,0.872,0.21,1.644,0.813,2.329c0.552,0.629,0.816,1.412,0.79,2.271
		c-0.015,0.476-0.281,0.776-0.753,0.796c-0.46,0.02-0.92,0.004-1.381,0.004C-52.058,12.112-52.058,12.114-52.058,12.118z
		 M-56,11.372c0,0,0,0,0,0.002c1.653,0,3.307-0.011,4.96,0.008c0.355,0.003,0.425-0.125,0.373-0.438
		c-0.1-0.604-0.332-1.143-0.743-1.598c-0.504-0.557-0.763-1.22-0.806-1.958c-0.061-0.991-0.065-1.987-0.133-2.978
		c-0.1-1.479-0.993-2.607-2.395-3.055c-0.27-0.087-0.369-0.223-0.369-0.506c0-0.366-0.133-0.684-0.514-0.828
		c-0.649-0.248-1.181,0.109-1.209,0.854c-0.01,0.274-0.1,0.4-0.345,0.476c-1.479,0.454-2.228,1.515-2.399,2.997
		c-0.088,0.751-0.082,1.514-0.092,2.271c-0.014,1.087-0.271,2.06-0.995,2.929c-0.321,0.385-0.432,0.953-0.604,1.451
		c-0.097,0.279,0.043,0.383,0.348,0.38C-59.281,11.364-57.641,11.372-56,11.372z M-54.533,12.149c-0.97,0-1.912,0-2.864,0
		c0.182,0.67,0.846,1.166,1.496,1.148C-55.323,13.281-54.661,12.739-54.533,12.149z"/>
</g>
<path fill="#4D69B1" d="M166.795,87.795c-0.016-21.223-14.939-38.125-35.99-39.686c-12.665-0.939-25.451-0.435-38.18-0.283
	c-4.981,0.059-7.336,2.973-7.625,8.16c-0.771,13.822-9.598,22.205-23.529,22.21C8.979,78.218-43.514,78.215-96.006,78.2
	c-13.93-0.005-22.406-7.703-23.806-21.508c-0.708-6.998-2.759-8.939-9.716-8.968c-10.405-0.042-20.811-0.041-31.216-0.005
	c-24.018,0.082-40.551,16.706-40.57,40.802c-0.02,26.104-0.007,52.21-0.004,78.315h368.144
	C166.818,140.489,166.814,114.143,166.795,87.795z"/>
<g>
	<circle fill="#172A52" cx="71.523" cy="29.827" r="11.5"/>
	<polyline fill="none" stroke="#FFFFFF" stroke-miterlimit="10" points="69.268,25.315 73.777,29.827 69.268,34.336 	"/>
</g>
<g>
	<path fill-rule="evenodd" clip-rule="evenodd" d="M-83.553,15.929c2.742,0,5.396,0,8.109,0c0.071-0.294,0.051-0.655,0.219-0.808
		c0.439-0.396,0.927-0.896,1.461-0.996c0.726-0.135,1.192,0.414,1.466,1.13c0.117,0.31,0.452,0.659,0.761,0.753
		c1.619,0.494,2.519,1.553,2.528,3.273c0.025,4.16,0.031,8.322,0,12.482c-0.015,2.063-1.288,3.334-3.348,3.346
		c-4.766,0.027-9.53,0.029-14.296,0c-1.94-0.012-3.233-1.273-3.253-3.211c-0.043-4.23-0.039-8.463-0.004-12.695
		c0.016-1.723,0.894-2.705,2.598-3.198c0.254-0.073,0.613-0.287,0.656-0.491c0.195-0.949,0.711-1.488,1.685-1.412
		C-83.962,14.178-83.649,14.929-83.553,15.929z M-69.867,21.917c-6.445,0-12.758,0-19.033,0c-0.072,0.126-0.138,0.187-0.138,0.248
		c-0.011,3.307-0.055,6.615-0.004,9.922c0.02,1.252,0.959,2.131,2.228,2.141c4.873,0.033,9.747,0.033,14.621,0.004
		c1.354-0.008,2.274-0.826,2.303-2.17C-69.819,28.723-69.867,25.383-69.867,21.917z M-69.969,20.887
		c0.456-2.577-0.367-4.026-2.226-3.919c-0.108,0.944-0.488,1.751-1.579,1.776c-1.17,0.029-1.496-0.867-1.656-1.838
		c-2.734,0-5.414,0-8.113,0c-0.089,0.951-0.404,1.72-1.38,1.832c-1.303,0.148-1.615-0.867-1.853-1.826
		c-1.786-0.098-2.796,1.748-2.093,3.975C-82.567,20.887-76.263,20.887-69.969,20.887z M-73.156,16.448c0.007,0,0.014,0,0.021,0
		c0-0.211,0.075-0.463-0.015-0.623c-0.181-0.317-0.451-0.583-0.685-0.871c-0.209,0.277-0.527,0.529-0.601,0.838
		c-0.102,0.432-0.095,0.926,0.011,1.357c0.066,0.274,0.398,0.483,0.61,0.723c0.22-0.229,0.497-0.427,0.639-0.695
		C-73.074,16.983-73.156,16.694-73.156,16.448z M-84.219,16.542c-0.077-0.05-0.154-0.101-0.232-0.15
		c0-0.143,0.052-0.313-0.009-0.421c-0.199-0.352-0.438-0.681-0.662-1.018C-85.34,15.3-85.574,15.639-85.768,16
		c-0.059,0.109-0.019,0.28-0.004,0.422c0.058,0.561-0.21,1.403,0.678,1.379C-84.79,17.793-84.51,16.985-84.219,16.542z"/>
	<path fill-rule="evenodd" clip-rule="evenodd" fill="none" stroke="#000000" stroke-miterlimit="10" d="M-82.512,27.168
		c0.428,0.381,0.868,0.684,1.188,1.082c0.58,0.727,1.06,0.771,1.703,0.049c0.803-0.9,1.663-1.758,2.573-2.549
		c0.265-0.229,0.787-0.164,1.191-0.232c-0.065,0.398,0.01,0.926-0.22,1.176c-1.153,1.254-2.395,2.426-3.587,3.645
		c-0.527,0.539-1.009,0.582-1.543,0.021c-0.588-0.617-1.227-1.188-1.779-1.834c-0.17-0.199-0.211-0.59-0.16-0.863
		C-83.113,27.495-82.797,27.379-82.512,27.168z"/>
</g>
<text transform="matrix(1 0 0 1 76.125 -53.208)" font-family="'Poppins-Regular'" font-size="11">Events</text>
<g>
	<polyline fill="none" stroke="#4D69B1" stroke-miterlimit="10" points="1.912,12.985 11.238,3.108 21.666,12.985 	"/>
	<polyline fill="none" stroke="#4D69B1" stroke-miterlimit="10" points="4.107,12.985 4.107,21.764 8.771,21.764 8.771,16.002 
		13.436,16.002 13.436,21.764 19.197,21.764 19.197,12.985 	"/>
</g>
<text transform="matrix(1 0 0 1 108.4453 -53.4053)" font-family="'Poppins-Regular'" font-size="11">Club</text>
<text transform="matrix(1 0 0 1 -55.9746 -53.208)" font-family="'Poppins-Regular'" font-size="11">Home</text>
<g>
	<path fill-rule="evenodd" clip-rule="evenodd" fill="#FED92E" d="M-51.397,39.713c0.945,0.076,1.688,0.048,2.385,0.213
		c1.44,0.341,2.354,1.457,2.309,2.998c-0.065,2.08,0.823,4.747-1.956,5.645c-1.572,0.507-3.54,0.452-5.15,0.007
		c-2.413-0.667-1.942-2.97-1.997-4.873c-0.045-1.618,0.297-3.051,1.974-3.648C-53.011,39.762-52.074,39.799-51.397,39.713z"/>
	<path fill-rule="evenodd" clip-rule="evenodd" d="M-39.9,60.25c-0.514-0.001-1.029,0.026-1.541-0.007
		c-1.636-0.105-2.866-1.197-2.999-2.799c-0.097-1.19-0.103-2.404,0.01-3.592c0.152-1.598,1.398-2.666,3.053-2.736
		c0.983-0.041,1.971-0.041,2.953,0.002c1.807,0.08,3.012,1.305,3.089,3.116c0.033,0.769,0.01,1.541,0.007,2.312
		c-0.008,2.529-1.164,3.694-3.673,3.706C-39.301,60.253-39.601,60.251-39.9,60.25z M-39.817,53.038c-0.3,0-0.601-0.002-0.901,0
		c-1.651,0.011-1.817,0.181-1.823,1.883c-0.003,0.73-0.146,1.505,0.055,2.177c0.141,0.478,0.746,1.161,1.15,1.166
		c4.585,0.069,4.063,0.595,4.073-3.951c0.003-0.838-0.421-1.27-1.266-1.271C-38.958,53.04-39.387,53.041-39.817,53.038z"/>
	<path fill-rule="evenodd" clip-rule="evenodd" d="M-35.332,44.362c0,0.514,0.027,1.029-0.005,1.541
		c-0.094,1.422-0.851,2.6-2.207,2.787c-1.538,0.214-3.128,0.055-4.695,0.056c-0.042,0-0.083-0.022-0.123-0.037
		c-1.932-0.663-2.659-2.847-2.082-6.247c0.283-1.673,1.52-2.662,3.374-2.689c0.687-0.011,1.371-0.004,2.057-0.002
		c2.516,0.011,3.675,1.173,3.686,3.693c0,0.299,0,0.599,0,0.898C-35.329,44.362-35.331,44.362-35.332,44.362z M-39.817,41.7
		c-0.258,0-0.516,0-0.773,0c-1.826,0.006-1.947,0.131-1.951,2.012c-0.002,0.645,0.008,1.289,0,1.934
		c-0.012,0.906,0.43,1.344,1.333,1.339c4.457-0.022,3.933,0.501,3.945-4.009c0.003-0.84-0.421-1.27-1.266-1.271
		C-38.958,41.703-39.387,41.704-39.817,41.7z"/>
	<path fill-rule="evenodd" clip-rule="evenodd" d="M-46.669,55.709c0,0.515,0.029,1.03-0.006,1.541
		c-0.102,1.425-0.861,2.599-2.216,2.783c-1.539,0.21-3.128,0.047-4.697,0.041c-0.082,0-0.167-0.037-0.247-0.068
		c-1.816-0.69-2.515-2.924-1.947-6.22c0.288-1.667,1.53-2.652,3.388-2.679c0.685-0.009,1.37-0.003,2.054,0
		c2.51,0.01,3.665,1.176,3.674,3.703c0.002,0.3,0,0.6,0,0.898C-46.667,55.709-46.668,55.709-46.669,55.709z M-48.595,55.597
		c0-0.256,0.002-0.512,0-0.768c-0.014-1.589-0.199-1.778-1.762-1.792c-3.677-0.033-4.195,0.566-3.469,4.252
		c0.079,0.396,0.649,0.805,1.085,0.989c0.399,0.169,0.923,0.042,1.393,0.042C-48.595,58.322-48.595,58.322-48.595,55.597z"/>
</g>
<text transform="matrix(1 0 0 1 106.7949 0)" font-family="'Poppins-Regular'" font-size="11">Members</text>
<path fill-rule="evenodd" clip-rule="evenodd" fill="#3A9ED8" d="M56.815-9.467c-2.09-3.251-2.018-6.088,0.136-8.069
	c1.685-1.55,4.085-1.641,5.843-0.22c2.308,1.864,2.468,4.667,0.441,8.287c2.634,1.268,4.44,3.266,5.254,6.107
	c0.41,1.439,0.122,1.859-1.357,1.861c-4.756,0.006-9.511,0.008-14.267,0c-1.435-0.002-1.704-0.387-1.329-1.768
	C52.313-6.125,54.093-8.145,56.815-9.467z M53.503-3.315c4.205,0,8.303,0.004,12.401-0.002c0.188,0,0.377-0.049,0.57-0.076
	c-0.575-2.598-3.344-4.801-6.063-4.875C57.178-8.356,54.417-6.436,53.503-3.315z M62.961-13.574
	c-0.012-1.933-1.327-3.427-3.003-3.405c-1.664,0.021-2.936,1.536-2.923,3.486c0.011,1.932,1.329,3.426,3.004,3.405
	C61.696-10.106,62.972-11.627,62.961-13.574z"/>
<g>
	<circle fill="#3A9ED8" cx="-71" cy="-34.81" r="10.832"/>
	<text transform="matrix(1 0 0 1 -75.8496 -30.3447)" fill="#FFFFFF" font-family="'TimesNewRomanPS-BoldMT'" font-size="17.0222">+</text>
</g>
<g>
	<path fill-rule="evenodd" clip-rule="evenodd" d="M176.827,34.358c0.586-1.354,1.599-2.132,3.063-2.138
		c1.481-0.006,2.501,0.777,3.093,2.137c0.388,0,0.771,0,1.155,0c5.434,0,10.868,0,16.302,0.001c0.606,0,1.075,0.38,1.155,0.927
		c0.08,0.545-0.261,1.066-0.809,1.207c-0.15,0.039-0.313,0.037-0.469,0.037c-5.66,0.002-11.32,0.004-16.98-0.005
		c-0.275,0-0.399,0.085-0.524,0.333c-0.597,1.188-1.599,1.813-2.909,1.813c-1.326-0.002-2.327-0.639-2.926-1.844
		c-0.109-0.219-0.218-0.307-0.476-0.303c-1.399,0.016-2.801,0.012-4.202,0.004c-0.549-0.002-1.007-0.418-1.072-0.942
		c-0.068-0.548,0.281-1.063,0.826-1.197c0.129-0.031,0.268-0.028,0.402-0.028C173.914,34.357,175.371,34.358,176.827,34.358z
		 M179.891,36.523c0.547,0.014,1.088-0.52,1.093-1.074c0.004-0.539-0.493-1.053-1.051-1.084c-0.537-0.031-1.085,0.491-1.107,1.057
		C178.803,35.963,179.332,36.509,179.891,36.523z"/>
	<path fill-rule="evenodd" clip-rule="evenodd" d="M189.838,46.294c-0.137,0-0.282,0-0.428,0c-5.671,0-11.343,0-17.014-0.001
		c-0.861,0-1.415-0.767-1.084-1.514c0.204-0.459,0.579-0.661,1.083-0.661c2.576,0.006,5.151,0.002,7.728,0.002
		c3.129,0,6.259,0,9.388,0c0.112,0,0.224,0,0.343,0c0.375-0.943,1.021-1.604,1.964-1.951c1.573-0.58,3.319,0.142,4.041,1.674
		c0.104,0.221,0.222,0.285,0.453,0.283c1.366-0.011,2.733-0.006,4.101-0.005c0.707,0.001,1.197,0.456,1.19,1.102
		c-0.007,0.625-0.497,1.069-1.188,1.07c-1.39,0.001-2.779-0.005-4.169,0.009c-0.113,0-0.283,0.088-0.329,0.182
		c-0.61,1.261-1.618,1.953-3.004,1.947c-1.399-0.007-2.413-0.71-2.997-2C189.897,46.39,189.871,46.353,189.838,46.294z
		 M192.937,46.287c0.559-0.014,1.09-0.563,1.065-1.102c-0.025-0.553-0.536-1.056-1.078-1.057c-0.551-0.003-1.086,0.532-1.081,1.084
		C191.848,45.765,192.392,46.3,192.937,46.287z"/>
	<path fill-rule="evenodd" clip-rule="evenodd" d="M176.835,53.885c0.376-0.946,1.023-1.606,1.966-1.953
		c1.569-0.579,3.324,0.146,4.041,1.677c0.104,0.223,0.223,0.281,0.452,0.281c5.717-0.006,11.433-0.006,17.148-0.004
		c0.9,0,1.448,0.867,1.02,1.613c-0.229,0.398-0.587,0.563-1.045,0.561c-2.734-0.005-5.468-0.002-8.202-0.002
		c-2.959,0-5.919,0.002-8.879-0.006c-0.254-0.001-0.391,0.057-0.511,0.303c-0.593,1.207-1.598,1.843-2.925,1.841
		c-1.342-0.002-2.345-0.657-2.939-1.875c-0.101-0.207-0.204-0.271-0.427-0.269c-1.366,0.011-2.733,0.006-4.101,0.005
		c-0.716-0.001-1.207-0.442-1.209-1.083c-0.001-0.645,0.487-1.088,1.202-1.088c1.345-0.002,2.688-0.001,4.034-0.001
		C176.583,53.885,176.706,53.885,176.835,53.885z M180.983,54.966c-0.006-0.555-0.55-1.09-1.093-1.075
		c-0.561,0.016-1.088,0.56-1.065,1.101c0.021,0.549,0.535,1.055,1.075,1.059C180.449,56.054,180.988,55.514,180.983,54.966z"/>
</g>
<g>
	<circle fill="#3A9ED8" cx="6.875" cy="-24.021" r="10.788"/>
	<text transform="matrix(1 0 0 1 1.9033 -20.374)" fill="#FFFFFF" font-family="'Verdana'" font-size="13.0209">X</text>
</g>
<g>
	<g>
		<path fill-rule="evenodd" clip-rule="evenodd" fill="#3A9ED8" d="M-20.118-21.978c-0.951-0.506-1.9-1.012-2.85-1.518
			c0.006-0.031,0.014-0.063,0.02-0.095c0.596,0,1.191,0,1.799,0c0.473-1.665,0.488-3.286,0.061-4.909
			c-0.027-0.1-0.17-0.24-0.26-0.241c-1.535-0.015-3.068-0.01-4.625-0.01c0,1.22,0,2.4,0,3.654c-0.479-0.253-0.922-0.467-1.338-0.722
			c-0.098-0.06-0.148-0.256-0.156-0.394c-0.037-0.666-0.051-1.334-0.078-2c-0.008-0.166-0.041-0.333-0.066-0.542
			c-0.541,0-1.051,0-1.561,0c-0.977,0-1.956,0.012-2.933-0.008c-0.327-0.006-0.444,0.114-0.443,0.425
			c0.004,1.457,0.006,2.915,0.002,4.372c0,0.275,0.111,0.384,0.394,0.372c0.45-0.021,0.902,0.021,1.349-0.015
			c0.354-0.028,0.497,0.113,0.562,0.437c0.073,0.361,0.186,0.716,0.296,1.13c-0.8,0-1.555,0-2.378,0
			c0.322,1.69,0.602,3.326,1.633,4.699c0.449,0.597,0.832,0.575,1.306-0.021c0.182-0.229,0.33-0.48,0.533-0.777
			c0.25,0.902,0.482,1.745,0.717,2.592c-3.835,0.828-8.943-0.798-11.471-5.527c-2.497-4.672-1.265-10.367,2.911-13.649
			c4.098-3.22,9.91-3.024,13.906,0.531C-18.817-30.662-18.522-25.263-20.118-21.978z M-34.127-28.72
			c-0.071-0.012-0.13-0.031-0.189-0.031c-1.444-0.001-2.887,0.008-4.331-0.01c-0.304-0.003-0.359,0.161-0.411,0.383
			c-0.348,1.461-0.341,2.919-0.018,4.384c0.071,0.323,0.229,0.407,0.544,0.403c1.164-0.018,2.329-0.007,3.493-0.007
			c0.305,0,0.61,0,0.913,0C-34.127-25.333-34.127-27.002-34.127-28.72z M-27.786-30.309c-0.256-1.524-0.566-2.972-1.332-4.276
			c-0.658-1.122-1.195-1.12-1.861-0.006c-0.662,1.107-0.967,2.34-1.213,3.59c-0.043,0.219-0.065,0.442-0.1,0.692
			C-30.777-30.309-29.325-30.309-27.786-30.309z M-21.844-30.289c-0.424-1.802-4.074-4.799-5.641-4.708
			c0.248,0.706,0.533,1.411,0.738,2.137c0.205,0.729,0.346,1.478,0.484,2.223c0.051,0.27,0.154,0.355,0.422,0.352
			c1.07-0.013,2.141-0.005,3.211-0.003C-22.372-30.289-22.114-30.289-21.844-30.289z M-32.526-35.071
			c-2.315,0.502-5.482,3.167-5.713,4.78c1.369,0,2.733,0.005,4.097-0.01c0.093-0.001,0.252-0.133,0.268-0.224
			C-33.61-32.071-33.25-33.588-32.526-35.071z M-32.496-17.22c-0.752-1.502-1.105-2.99-1.348-4.506
			c-0.049-0.31-0.204-0.324-0.442-0.322c-1.21,0.006-2.421,0.001-3.632,0.004c-0.114,0-0.229,0.029-0.414,0.053
			C-37.038-19.599-35.162-18.037-32.496-17.22z"/>
		<path fill-rule="evenodd" clip-rule="evenodd" fill="#3A9ED8" d="M-19.499-20.419c-1.203,0.488-2.301,0.934-3.465,1.404
			c0.951,1.188,1.867,2.331,2.795,3.492c-0.564,0.455-1.092,0.88-1.645,1.326c-0.939-1.168-1.852-2.302-2.805-3.488
			c-0.695,1.012-1.375,1.998-2.119,3.079c-1.061-3.804-2.092-7.505-3.163-11.346C-26.395-24.087-22.995-22.28-19.499-20.419z"/>
	</g>
</g>
<g>
	<path fill="#F0F8FD" d="M-100.972,49.073c0,2.209-1.791,4-4,4h-44.983c-2.209,0-4-1.791-4-4V33.079c0-2.209,1.791-4,4-4h44.983
		c2.209,0,4,1.791,4,4V49.073z"/>
	<g>
		<text transform="matrix(1 0 0 1 -141.9756 44.0327)" fill="#868686" font-family="'MyriadPro-Regular'" font-size="10.0739">PDF</text>
		<g>
			<path fill-rule="evenodd" clip-rule="evenodd" fill="#868686" d="M-121.869,41.034c0.266-0.265,0.535-0.533,0.822-0.819
				c0.92,0.921,1.843,1.847,2.797,2.8c0-2.963,0-5.887,0-8.822c0.392,0,0.761,0,1.151,0c0,2.925,0,5.851,0,8.804
				c0.946-0.951,1.868-1.88,2.787-2.805c0.306,0.31,0.57,0.578,0.824,0.835c-1.391,1.387-2.8,2.791-4.196,4.183
				C-119.06,43.834-120.467,42.432-121.869,41.034z"/>
			<path fill-rule="evenodd" clip-rule="evenodd" fill="#868686" d="M-122.385,47.959c0-0.39,0-0.768,0-1.159
				c3.144,0,6.282,0,9.434,0c0,0.387,0,0.768,0,1.159C-116.094,47.959-119.228,47.959-122.385,47.959z"/>
		</g>
	</g>
</g>
<path fill-rule="evenodd" clip-rule="evenodd" fill="#FFFFFF" d="M-25.705,39.713c-0.278-0.463-0.514-0.834-0.73-1.215
	c-1.862-3.283-3.698-6.578-4.981-10.148c-0.706-1.965-0.583-3.83,0.545-5.602c1.464-2.303,4.36-3.344,7.044-2.539
	c2.554,0.766,4.479,3.252,4.32,5.91c-0.072,1.213-0.497,2.438-0.949,3.582c-1.326,3.363-3.114,6.498-4.932,9.615
	C-25.451,39.422-25.544,39.514-25.705,39.713z M-28.952,25.833c-0.026,1.83,1.423,3.316,3.251,3.334
	c1.803,0.018,3.273-1.412,3.312-3.219c0.04-1.836-1.4-3.33-3.224-3.352C-27.462,22.575-28.925,23.993-28.952,25.833z"/>
<g>
	<path fill-rule="evenodd" clip-rule="evenodd" fill="#FFFFFF" d="M114.473,12.043c1.002,0,1.996,0,3.018,0
		c0-0.406-0.004-0.799,0.002-1.195c0-0.293,0.166-0.535,0.426-0.632c0.279-0.104,0.609-0.036,0.775,0.2
		c0.094,0.129,0.148,0.306,0.16,0.463c0.021,0.378,0.008,0.759,0.008,1.16c1.012,0,2.012,0,3.039,0c0-0.4-0.006-0.791,0.002-1.187
		c0.004-0.328,0.207-0.578,0.518-0.656c0.316-0.081,0.635,0.045,0.781,0.339c0.057,0.112,0.082,0.252,0.084,0.38
		c0.012,0.371,0.006,0.744,0.006,1.144c0.291,0,0.561,0,0.83,0c0.367,0,0.732-0.004,1.1,0c0.557,0.006,0.996,0.436,0.998,0.992
		c0.002,2.268-0.002,4.534-0.002,6.798c-0.002,1.057,0,2.115,0.008,3.172c0,0.08,0.055,0.18,0.117,0.232
		c0.93,0.742,1.426,1.713,1.434,2.893c0.01,2.143-1.686,3.635-3.488,3.715c-0.92,0.041-1.732-0.217-2.469-0.76
		c-0.1-0.076-0.254-0.107-0.383-0.107c-3.375-0.006-6.75-0.006-10.123-0.006c-0.793,0-1.195-0.398-1.195-1.184
		c0-4.572,0-9.141,0-13.71c0-0.314-0.002-0.631,0-0.945c0-0.666,0.42-1.088,1.084-1.09c0.594-0.002,1.186-0.002,1.781-0.006
		c0.014,0,0.027-0.01,0.076-0.025c0-0.389-0.006-0.787,0.002-1.187c0.006-0.361,0.277-0.639,0.635-0.663
		c0.422-0.03,0.746,0.271,0.752,0.706c0.006,0.367,0.004,0.732,0.006,1.101C114.453,11.997,114.461,12.012,114.473,12.043z
		 M125.285,22.666c0-1.662,0-3.313,0-4.971c-4.752,0-9.486,0-14.25,0c0,0.1,0,0.184,0,0.271c0,3.246,0,6.496,0,9.746
		c0,0.344,0,0.346,0.336,0.346c3.096,0,6.189,0,9.285,0c0.07,0,0.141-0.008,0.221-0.014c-0.74-1.482-0.697-2.91,0.35-4.193
		C122.279,22.558,123.68,22.232,125.285,22.666z M126.842,26.175c0-1.529-1.24-2.768-2.773-2.766
		c-1.504,0.002-2.742,1.242-2.742,2.746c-0.002,1.541,1.221,2.781,2.748,2.785C125.602,28.949,126.842,27.705,126.842,26.175z
		 M117.484,13.543c-0.338,0.225-0.465,0.705-0.314,1.129c0.162,0.471,0.617,0.768,1.109,0.73c0.488-0.043,0.902-0.418,0.984-0.893
		c0.072-0.418-0.098-0.848-0.406-0.986c0,0.166,0.027,0.334-0.008,0.484c-0.035,0.148-0.104,0.314-0.213,0.412
		c-0.109,0.102-0.283,0.174-0.43,0.176c-0.156,0.004-0.336-0.057-0.469-0.143C117.414,14.239,117.504,13.875,117.484,13.543z
		 M121.896,13.524c-0.371,0.283-0.488,0.754-0.316,1.188c0.178,0.449,0.641,0.732,1.117,0.689c0.479-0.045,0.871-0.404,0.967-0.885
		c0.08-0.389-0.082-0.824-0.336-0.955c-0.039,0.229-0.047,0.475-0.133,0.693c-0.1,0.248-0.34,0.375-0.607,0.346
		c-0.158-0.016-0.33-0.08-0.457-0.172C121.834,14.208,121.91,13.864,121.896,13.524z M113.053,13.5
		c-0.514,0.482-0.516,1.18-0.043,1.613c0.471,0.436,1.205,0.377,1.594-0.133c0.367-0.475,0.305-1.146-0.119-1.422
		c-0.039,0.229-0.043,0.475-0.129,0.691c-0.102,0.248-0.338,0.375-0.607,0.352c-0.15-0.012-0.318-0.07-0.443-0.156
		C112.99,14.223,113.063,13.864,113.053,13.5z"/>
	<path fill-rule="evenodd" clip-rule="evenodd" fill="#FFFFFF" d="M117.012,25.777c0-0.777,0-1.545,0-2.328c0.777,0,1.547,0,2.324,0
		c0,0.779,0,1.547,0,2.328C118.568,25.777,117.803,25.777,117.012,25.777z"/>
	<path fill-rule="evenodd" clip-rule="evenodd" fill="#FFFFFF" d="M115.158,23.451c0,0.777,0,1.543,0,2.326
		c-0.768,0-1.533,0-2.316,0c0-0.766,0-1.537,0-2.326C113.602,23.451,114.367,23.451,115.158,23.451z"/>
	<path fill-rule="evenodd" clip-rule="evenodd" fill="#FFFFFF" d="M123.514,19.123c0,0.77,0,1.529,0,2.309c-0.777,0-1.547,0-2.328,0
		c0-0.77,0-1.529,0-2.309C121.957,19.123,122.721,19.123,123.514,19.123z"/>
	<path fill-rule="evenodd" clip-rule="evenodd" fill="#FFFFFF" d="M115.156,21.435c-0.779,0-1.545,0-2.32,0c0-0.777,0-1.543,0-2.318
		c0.777,0,1.543,0,2.32,0C115.156,19.892,115.156,20.658,115.156,21.435z"/>
	<path fill-rule="evenodd" clip-rule="evenodd" fill="#FFFFFF" d="M119.334,21.435c-0.777,0-1.541,0-2.32,0c0-0.777,0-1.543,0-2.318
		c0.779,0,1.543,0,2.32,0C119.334,19.892,119.334,20.658,119.334,21.435z"/>
	<path fill-rule="evenodd" clip-rule="evenodd" fill="#FFFFFF" d="M124.314,25.259c0,0.125,0.02,0.254-0.004,0.371
		c-0.057,0.316,0.086,0.475,0.361,0.596c0.361,0.16,0.703,0.361,1.057,0.539c0.152,0.076,0.242,0.184,0.166,0.348
		c-0.082,0.174-0.23,0.15-0.375,0.076c-0.5-0.262-1.004-0.514-1.496-0.789c-0.084-0.049-0.164-0.191-0.168-0.293
		c-0.016-0.49-0.006-0.982-0.008-1.471c0-0.168,0.045-0.301,0.238-0.297c0.191,0.004,0.23,0.141,0.229,0.305
		C124.313,24.847,124.314,25.054,124.314,25.259z"/>
</g>
<g>
	<circle fill="#FFFFFF" cx="117.189" cy="19.938" r="10.395"/>
	<polyline fill="none" stroke="#4D69B1" stroke-miterlimit="10" points="113.007,17.141 117.915,23.066 121.372,16.813 	"/>
</g>
</svg>
